<?xml version="1.0" encoding="UTF-8" standalone="no"?>
<!-- Created with Inkscape (http://www.inkscape.org/) -->

<svg
   width="105.69531mm"
   height="105.69544mm"
   viewBox="0 0 105.69531 105.69544"
   version="1.1"
   id="svg5"
   inkscape:version="1.1.1 (3bf5ae0d25, 2021-09-20)"
   sodipodi:docname="health_logo.svg"
   xmlns:inkscape="http://www.inkscape.org/namespaces/inkscape"
   xmlns:sodipodi="http://sodipodi.sourceforge.net/DTD/sodipodi-0.dtd"
   xmlns="http://www.w3.org/2000/svg"
   xmlns:svg="http://www.w3.org/2000/svg">
  <sodipodi:namedview
     id="namedview7"
     pagecolor="#ffffff"
     bordercolor="#111111"
     borderopacity="1"
     inkscape:pageshadow="0"
     inkscape:pageopacity="0"
     inkscape:pagecheckerboard="1"
     inkscape:document-units="mm"
     showgrid="false"
     inkscape:zoom="0.73406285"
     inkscape:cx="-155.30005"
     inkscape:cy="273.13738"
     inkscape:window-width="1920"
     inkscape:window-height="1009"
     inkscape:window-x="-8"
     inkscape:window-y="-8"
     inkscape:window-maximized="1"
     inkscape:current-layer="layer2"
     fit-margin-top="0"
     fit-margin-left="0"
     fit-margin-right="0"
     fit-margin-bottom="0" />
  <defs
     id="defs2">
    <inkscape:path-effect
       effect="powerclip"
       id="path-effect2671"
       is_visible="true"
       lpeversion="1"
       inverse="true"
       flatten="false"
       hide_clip="false"
       message="Usar a regra de preenchimento par ou ímpar na caixa de diálogo &lt;b&gt;preenchimento e contorno&lt;/b&gt; se nenhum resultado nivelar após converter o clipe em caminhos." />
    <clipPath
       clipPathUnits="userSpaceOnUse"
       id="clipPath2455">
      <ellipse
         style="fill:none;stroke:#000000;stroke-width:0.439944;stroke-linecap:round"
         id="ellipse2457"
         cy="90.500404"
         cx="56.009403"
         rx="65.612045"
         ry="63.80986" />
    </clipPath>
    <clipPath
       clipPathUnits="userSpaceOnUse"
       id="clipPath2651">
      <g
         id="g2657"
         transform="translate(-1.941748e-7,-0.16872696)">
        <rect
           style="fill:#000000;fill-opacity:1;stroke:none;stroke-width:0.465;stroke-linecap:round;stroke-linejoin:round;stroke-miterlimit:4;stroke-dasharray:none;stroke-opacity:1"
           id="rect2653"
           width="105.69531"
           height="39.519901"
           x="48.801922"
           y="114.27052"
           ry="2.8834951" />
        <rect
           style="fill:#000000;fill-opacity:1;stroke:none;stroke-width:0.465;stroke-linecap:round;stroke-linejoin:round;stroke-miterlimit:4;stroke-dasharray:none;stroke-opacity:1"
           id="rect2655"
           width="105.69531"
           height="39.519901"
           x="81.182816"
           y="-121.40953"
           ry="2.8834951"
           transform="rotate(90)" />
      </g>
    </clipPath>
    <clipPath
       clipPathUnits="userSpaceOnUse"
       id="clipPath2659">
      <g
         id="g2665">
        <rect
           style="fill:#000000;fill-opacity:1;stroke:none;stroke-width:0.465;stroke-linecap:round;stroke-linejoin:round;stroke-miterlimit:4;stroke-dasharray:none;stroke-opacity:1"
           id="rect2661"
           width="105.69531"
           height="39.519901"
           x="48.801922"
           y="114.27052"
           ry="2.8834951" />
        <rect
           style="fill:#000000;fill-opacity:1;stroke:none;stroke-width:0.465;stroke-linecap:round;stroke-linejoin:round;stroke-miterlimit:4;stroke-dasharray:none;stroke-opacity:1"
           id="rect2663"
           width="105.69531"
           height="39.519901"
           x="81.182816"
           y="-121.40953"
           ry="2.8834951"
           transform="rotate(90)" />
      </g>
    </clipPath>
    <clipPath
       clipPathUnits="userSpaceOnUse"
       id="clipPath2667">
      <ellipse
         style="display:none;fill:#005a00;fill-opacity:1;stroke:#000000;stroke-width:0.439945;stroke-linecap:round"
         id="ellipse2669"
         ry="63.80986"
         rx="65.612045"
         cy="104.73766"
         cx="58.352242"
         clip-path="url(#clipPath2651)"
         transform="translate(1.941748e-7,0.16872696)" />
      <path
         id="lpe_path-effect2671"
         style="fill:#005a00;fill-opacity:1;stroke:#000000;stroke-width:0.439945;stroke-linecap:round"
         class="powerclip"
         d="M 43.801922,76.182888 H 159.49723 V 191.87826 H 43.801922 Z M 123.96429,104.73766 A 65.612045,63.80986 0 0 0 58.352242,40.927803 65.612045,63.80986 0 0 0 -7.2598038,104.73766 65.612045,63.80986 0 0 0 58.352242,168.54752 65.612045,63.80986 0 0 0 123.96429,104.73766 Z" />
    </clipPath>
  </defs>
  <g
     inkscape:label="Camada 1"
     inkscape:groupmode="layer"
     id="layer1"
     transform="translate(-48.801922,-81.014089)" />
  <g
     inkscape:groupmode="layer"
     id="layer2"
     inkscape:label="Camada 2"
     transform="translate(-48.801922,-81.014089)">
    <g
       id="g2637"
       transform="translate(-1.941748e-7,-0.16872696)"
       clip-path="url(#clipPath2667)"
       inkscape:path-effect="#path-effect2671"
       style="fill:#8cc440;fill-opacity:1">
      <path
         style="fill:#8cc440;fill-opacity:1;stroke:none;stroke-width:0.465;stroke-linecap:round;stroke-linejoin:round;stroke-miterlimit:4;stroke-dasharray:none;stroke-opacity:1"
         id="rect2633"
         width="105.69531"
         height="39.519901"
         x="48.801922"
         y="114.27052"
         ry="2.8834951"
         d="m 51.685417,114.27052 h 99.928323 c 1.59746,0 2.88349,1.28604 2.88349,2.8835 v 33.75291 c 0,1.59746 -1.28603,2.88349 -2.88349,2.88349 H 51.685417 c -1.597456,0 -2.883495,-1.28603 -2.883495,-2.88349 v -33.75291 c 0,-1.59746 1.286039,-2.8835 2.883495,-2.8835 z"
         sodipodi:type="rect" />
      <path
         id="rect2635"
         style="fill:#8cc440;fill-opacity:1;stroke:none;stroke-width:1.75748;stroke-linecap:round;stroke-linejoin:round;stroke-miterlimit:4;stroke-dasharray:none;stroke-opacity:1"
         transform="matrix(0.26458333,0,0,0.26458333,1.941748e-7,0.16872696)"
         d="m 320.40234,306.19531 c -6.03763,0 -10.89843,4.86081 -10.89843,10.89844 v 377.68164 c 0,6.03763 4.8608,10.89844 10.89843,10.89844 h 127.57032 c 6.03763,0 10.89843,-4.86081 10.89843,-10.89844 V 330.66016 c -4.44883,1.07945 -8.99841,2.12473 -13.28711,3.6875 -1.38848,0.50594 -2.72708,1.13819 -4.09179,1.70507 -2.32917,0.96751 -4.65936,1.93502 -6.99024,2.89844 -1.9288,0.79726 -3.85919,1.5901 -5.78906,2.38477 -4.16381,1.7145 -6.71685,-0.57213 -6.08789,-3.01367 -0.8131,0.18111 -1.31207,0.26506 -2.94531,0.67773 -3.35199,0.84694 -5.90432,1.88267 -8.20117,4.46484 -0.36632,1.11463 -1.70082,1.82063 -2.62696,2.43946 -5.60647,3.74627 -10.2734,-5.31695 -3.54883,-5.81446 0.78516,-0.0581 0.5691,-0.20827 1.24805,-1.32812 0.58549,-0.5906 1.12207,-1.23307 1.75586,-1.77149 2.84481,-2.41667 6.3208,-3.76195 9.90039,-4.64062 5.85574,-1.43742 4.83584,-1.18546 9.87305,-1.68555 1.0306,-0.17959 2.37517,-0.37239 3.70703,-0.60742 -0.86616,-1.97083 0.73808,-4.4707 4.82422,-4.4707 0.90822,0 1.82323,0.11115 2.72461,0 1.02647,-0.12658 2.20775,-0.30611 3.46679,-0.51563 2.86131,-1.90045 5.2611,-3.90104 8.85157,-7.08008 0.93572,-0.82849 1.27133,-1.13145 2.01758,-1.79101 -1.17829,0.46503 -2.36559,0.91027 -3.56641,1.32226 v -0.002 c -6.37799,2.18827 -8.85018,-4.16948 -2.46875,-6.34765 0.8169,-0.27884 1.62798,-0.57355 2.43359,-0.87891 -0.17619,-1.10957 0.35946,-2.38509 1.74414,-3.37305 -1.19664,-0.45153 -2.48245,-0.72461 -3.84179,-0.72461 z"
         inkscape:original-d="m 320.40234,306.19531 c -6.03763,0 -10.89843,4.86081 -10.89843,10.89844 v 377.68164 c 0,6.03763 4.8608,10.89844 10.89843,10.89844 h 127.57032 c 6.03763,0 10.89843,-4.86081 10.89843,-10.89844 V 330.66016 c -4.44883,1.07945 -8.99841,2.12473 -13.28711,3.6875 -1.38848,0.50594 -2.72708,1.13819 -4.09179,1.70507 -2.32917,0.96751 -4.65936,1.93502 -6.99024,2.89844 -1.9288,0.79726 -3.85919,1.5901 -5.78906,2.38477 -4.16381,1.7145 -6.71685,-0.57213 -6.08789,-3.01367 -0.8131,0.18111 -1.31207,0.26506 -2.94531,0.67773 -3.35199,0.84694 -5.90432,1.88267 -8.20117,4.46484 -0.36632,1.11463 -1.70082,1.82063 -2.62696,2.43946 -5.60647,3.74627 -10.2734,-5.31695 -3.54883,-5.81446 0.78516,-0.0581 0.5691,-0.20827 1.24805,-1.32812 0.58549,-0.5906 1.12207,-1.23307 1.75586,-1.77149 2.84481,-2.41667 6.3208,-3.76195 9.90039,-4.64062 5.85574,-1.43742 4.83584,-1.18546 9.87305,-1.68555 1.0306,-0.17959 2.37517,-0.37239 3.70703,-0.60742 -0.86616,-1.97083 0.73808,-4.4707 4.82422,-4.4707 0.90822,0 1.82323,0.11115 2.72461,0 1.02647,-0.12658 2.20775,-0.30611 3.46679,-0.51563 2.86131,-1.90045 5.2611,-3.90104 8.85157,-7.08008 0.93572,-0.82849 1.27133,-1.13145 2.01758,-1.79101 -1.17829,0.46503 -2.36559,0.91027 -3.56641,1.32226 v -0.002 c -6.37799,2.18827 -8.85018,-4.16948 -2.46875,-6.34765 0.8169,-0.27884 1.62798,-0.57355 2.43359,-0.87891 -0.17619,-1.10957 0.35946,-2.38509 1.74414,-3.37305 -1.19664,-0.45153 -2.48245,-0.72461 -3.84179,-0.72461 z" />
    </g>
    <g
       id="g2443"
       clip-path="url(#clipPath2455)"
       transform="translate(-1.941748e-7,-0.16872696)"
       style="fill:#26ace6;fill-opacity:1">
      <rect
         style="fill:#26ace6;fill-opacity:1;stroke:none;stroke-width:0.465;stroke-linecap:round;stroke-linejoin:round;stroke-miterlimit:4;stroke-dasharray:none;stroke-opacity:1"
         id="rect858"
         width="105.69531"
         height="39.519901"
         x="48.801922"
         y="114.27052"
         ry="2.8834951" />
      <rect
         style="fill:#26ace6;fill-opacity:1;stroke:none;stroke-width:0.465;stroke-linecap:round;stroke-linejoin:round;stroke-miterlimit:4;stroke-dasharray:none;stroke-opacity:1"
         id="rect2161"
         width="105.69531"
         height="39.519901"
         x="81.182816"
         y="-121.40953"
         ry="2.8834951"
         transform="rotate(90)" />
    </g>
  </g>
</svg>
